Sprint_05400001_forces_filt999Hz.mot
version=1
nRows=28
nColumns=19
inDegrees=yes
endheader
time	R_ground_force_vx	R_ground_force_vy	R_ground_force_vz	R_ground_force_px	R_ground_force_py	R_ground_force_pz	R_ground_torque_x	R_ground_torque_y	R_ground_torque_z	L_ground_force_vx	L_ground_force_vy	L_ground_force_vz	L_ground_force_px	L_ground_force_py	L_ground_force_pz	L_ground_torque_x	L_ground_torque_y	L_ground_torque_z	
2.714500	  0.000000	  0.000000	  0.000000	  0.137913	  0.000000	 -0.240023	  0.000000	  0.000000	  0.000000	  0.000000	  0.000000	  0.000000	  1.224056	  0.000000	 -0.378683	  0.000000	  0.000000	  0.000000
2.715000	  0.000000	  0.000000	  0.000000	  0.139420	  0.000000	 -0.239888	  0.000000	  0.000000	  0.000000	  0.000000	  0.000000	  0.000000	  1.222273	  0.000000	 -0.378184	  0.000000	  0.000000	  0.000000
2.715500	  0.000000	  0.000000	  0.000000	  0.141022	  0.000000	 -0.239818	  0.000000	  0.000000	  0.000000	  0.000000	  0.000000	  0.000000	  1.220244	  0.000000	 -0.377574	  0.000000	  0.000000	  0.000000
2.716000	  0.000000	  0.000000	  0.000000	  0.142624	  0.000000	 -0.239748	  0.000000	  0.000000	  0.000000	  0.000000	  0.000000	  0.000000	  1.218215	  0.000000	 -0.376964	  0.000000	  0.000000	  0.000000
2.716500	  0.000000	  0.000000	  0.000000	  0.144226	  0.000000	 -0.239678	  0.000000	  0.000000	  0.000000	  0.000000	  0.000000	  0.000000	  1.216186	  0.000000	 -0.376355	  0.000000	  0.000000	  0.000000
2.717000	  0.000000	  0.000000	  0.000000	  0.145828	  0.000000	 -0.239608	  0.000000	  0.000000	  0.000000	  0.000000	  0.000000	  0.000000	  1.214157	  0.000000	 -0.375745	  0.000000	  0.000000	  0.000000
2.717500	  0.000000	  0.000000	  0.000000	  0.147429	  0.000000	 -0.239538	  0.000000	  0.000000	  0.000000	  0.000000	  0.000000	  0.000000	  1.212128	  0.000000	 -0.375135	  0.000000	  0.000000	  0.000000
2.718000	  0.000000	  0.000000	  0.000000	  0.149031	  0.000000	 -0.239468	  0.000000	  0.000000	  0.000000	  0.000000	  0.000000	  0.000000	  1.210099	  0.000000	 -0.374525	  0.000000	  0.000000	  0.000000
2.718500	  0.000000	  0.000000	  0.000000	  0.150633	  0.000000	 -0.239398	  0.000000	  0.000000	  0.000000	  0.000000	  0.000000	  0.000000	  1.208070	  0.000000	 -0.373916	  0.000000	  0.000000	  0.000000
2.719000	  0.000000	  0.000000	  0.000000	  0.152235	  0.000000	 -0.239328	  0.000000	  0.000000	  0.000000	  0.000000	  0.000000	  0.000000	  1.206041	  0.000000	 -0.373306	  0.000000	  0.000000	  0.000000
2.719500	  0.000000	  0.000000	  0.000000	  0.254344	 -0.000000	 -0.265829	  0.000000	  0.000000	  0.000000	  0.000000	  0.000000	  0.000000	  1.204012	  0.000000	 -0.372696	  0.000000	  0.000000	  0.000000
2.720000	  0.000000	  0.000000	  0.000000	  0.356453	 -0.000000	 -0.292331	  0.000000	  0.000000	  0.000000	  0.000000	  0.000000	  0.000000	  1.201984	  0.000000	 -0.372086	  0.000000	  0.000000	  0.000000
2.720500	  0.000000	  0.000000	  0.000000	  0.458562	 -0.000000	 -0.318833	  0.000000	  0.000000	  0.000000	  0.000000	  0.000000	  0.000000	  1.199722	  0.000000	 -0.371421	  0.000000	  0.000000	  0.000000
2.721000	  0.000000	  0.000000	  0.000000	  0.560671	 -0.000000	 -0.345335	  0.000000	  0.000000	  0.000000	  0.000000	  0.000000	  0.000000	  1.197460	  0.000000	 -0.370755	  0.000000	  0.000000	  0.000000
2.721500	  0.000000	  0.000000	  0.000000	  0.662781	  0.000000	 -0.371837	  0.000000	  0.000000	  0.000000	  0.000000	  0.000000	  0.000000	  1.195199	  0.000000	 -0.370089	  0.000000	  0.000000	  0.000000
2.722000	  0.000000	  0.000000	  0.000000	  0.764890	  0.000000	 -0.398339	  0.000000	  0.000000	  0.000000	  0.000000	  0.000000	  0.000000	  1.192937	  0.000000	 -0.369423	  0.000000	  0.000000	  0.000000
2.722500	  0.000000	  0.000000	  0.000000	  0.866999	  0.000000	 -0.424841	  0.000000	  0.000000	  0.000000	  0.000000	  0.000000	  0.000000	  1.190676	  0.000000	 -0.368758	  0.000000	  0.000000	  0.000000
2.723000	-160.883217	395.573631	-103.983672	  0.969108	  0.000000	 -0.451343	  0.000000	-52.320797	  0.000000	  0.000000	  0.000000	  0.000000	  1.188414	  0.000000	 -0.368092	  0.000000	  0.000000	  0.000000
2.723500	-160.237883	394.373887	-103.917387	  1.071217	  0.000000	 -0.477845	  0.000000	-52.076188	  0.000000	  0.000000	  0.000000	  0.000000	  1.186153	  0.000000	 -0.367426	  0.000000	  0.000000	  0.000000
2.724000	-199.030422	533.818250	-124.811802	  1.035255	  0.000000	 -0.465402	  0.000000	-49.851684	  0.000000	  0.000000	  0.000000	  0.000000	  1.183891	  0.000000	 -0.366760	  0.000000	  0.000000	  0.000000
2.724500	-198.766091	532.313335	-124.516870	  1.035563	  0.000000	 -0.465125	  0.000000	-49.818763	  0.000000	  0.000000	  0.000000	  0.000000	  1.181630	  0.000000	 -0.366094	  0.000000	  0.000000	  0.000000
2.725000	-233.668109	673.283602	-150.980508	  1.014445	  0.000000	 -0.464275	  0.000000	-48.825592	  0.000000	  0.000000	  0.000000	  0.000000	  1.179368	  0.000000	 -0.365429	  0.000000	  0.000000	  0.000000
2.725500	-233.327011	671.473456	-150.609518	  1.014739	  0.000000	 -0.464354	  0.000000	-48.704619	  0.000000	  0.000000	  0.000000	  0.000000	  1.176602	  0.000000	 -0.364974	  0.000000	  0.000000	  0.000000
2.726000	-276.240370	797.947960	-162.882244	  1.016128	  0.000000	 -0.467925	  0.000000	-60.096404	  0.000000	  0.000000	  0.000000	  0.000000	  1.173836	  0.000000	 -0.364519	  0.000000	  0.000000	  0.000000
2.726500	-275.593616	796.442872	-162.740375	  1.016296	  0.000000	 -0.467820	  0.000000	-59.815873	  0.000000	  0.000000	  0.000000	  0.000000	  1.171070	  0.000000	 -0.364063	  0.000000	  0.000000	  0.000000
2.727000	-332.698132	897.587934	-142.130169	  1.011448	  0.000000	 -0.462765	  0.000000	-73.665911	  0.000000	  0.000000	  0.000000	  0.000000	  1.168303	  0.000000	 -0.363608	  0.000000	  0.000000	  0.000000
2.727500	-332.050891	896.693019	-142.446308	  1.011037	  0.000000	 -0.462756	  0.000000	-73.487082	  0.000000	  0.000000	  0.000000	  0.000000	  1.165537	  0.000000	 -0.363153	  0.000000	  0.000000	  0.000000
2.728000	-402.812513	980.290683	-90.936810	  1.000458	  0.000000	 -0.450185	  0.000000	-73.657040	  0.000000	  0.000000	  0.000000	  0.000000	  1.162771	  0.000000	 -0.362698	  0.000000	  0.000000	  0.000000
